HIERARCHY
ROOT Hips
{
	OFFSET 0.000000 71.427986 0.000000
	CHANNELS 6 Xposition Yposition Zposition Xrotation Yrotation Zrotation
	JOINT Pelvis
	{
		OFFSET 0.000000 0.000000 0.000000
		CHANNELS 3 Xrotation Yrotation Zrotation
		JOINT LeftUpLeg
		{
			OFFSET 6.797100 -2.508499 -1.318700
			CHANNELS 3 Xrotation Yrotation Zrotation
			JOINT LeftLeg
			{
				OFFSET 0.069008 -29.241863 0.690200
				CHANNELS 3 Xrotation Yrotation Zrotation
				JOINT LeftFoot
				{
					OFFSET -0.069008 -29.568123 -0.266800
					CHANNELS 3 Xrotation Yrotation Zrotation
					JOINT LeftToeBase
					{
						OFFSET 3.145500 -8.631000 16.059900
						CHANNELS 3 Xrotation Yrotation Zrotation
						End Site
						{
							OFFSET 0.000000 18.501587 0.000000
						}
					}
				}
			}
			JOINT Left_ShortSleeve
			{
				OFFSET 0.265923 -10.480953 1.153800
				CHANNELS 3 Xrotation Yrotation Zrotation
				End Site
				{
					OFFSET 1.725763 19.823879 0.000000
				}
			}
		}
		JOINT RightUpLeg
		{
			OFFSET -6.797100 -2.508499 -1.318700
			CHANNELS 3 Xrotation Yrotation Zrotation
			JOINT RightLeg
			{
				OFFSET -0.082453 -29.241932 0.688000
				CHANNELS 3 Xrotation Yrotation Zrotation
				JOINT RightFoot
				{
					OFFSET 0.082453 -29.568058 -0.264600
					CHANNELS 3 Xrotation Yrotation Zrotation
					JOINT RightToeBase
					{
						OFFSET -3.115300 -8.682800 16.113400
						CHANNELS 3 Xrotation Yrotation Zrotation
						End Site
						{
							OFFSET 0.000000 18.567114 0.000000
						}
					}
				}
			}
			JOINT Right_ShortSleeve
			{
				OFFSET -0.265923 -10.480953 1.153800
				CHANNELS 3 Xrotation Yrotation Zrotation
				End Site
				{
					OFFSET -1.725766 19.823910 0.000000
				}
			}
		}
	}
	JOINT Spine
	{
		OFFSET 0.000000 13.368103 0.470500
		CHANNELS 3 Xrotation Yrotation Zrotation
		JOINT Spine1
		{
			OFFSET 0.147000 13.837402 0.538800
			CHANNELS 3 Xrotation Yrotation Zrotation
			JOINT Spine2
			{
				OFFSET 0.168000 16.242897 -1.435500
				CHANNELS 3 Xrotation Yrotation Zrotation
				JOINT Neck
				{
					OFFSET 0.217200 18.631500 -1.679100
					CHANNELS 3 Xrotation Yrotation Zrotation
					JOINT Head
					{
						OFFSET 0.000000 6.599396 1.385900
						CHANNELS 3 Xrotation Yrotation Zrotation
						JOINT Hat
						{
							OFFSET -0.532200 27.220596 -10.096100
							CHANNELS 3 Xrotation Yrotation Zrotation
							End Site
							{
								OFFSET 0.000000 22.029861 0.000000
							}
						}
						JOINT HairD
						{
							OFFSET -10.777400 17.437393 -1.325900
							CHANNELS 3 Xrotation Yrotation Zrotation
							JOINT HairD1
							{
								OFFSET -3.290299 -11.051193 1.062200
								CHANNELS 3 Xrotation Yrotation Zrotation
								End Site
								{
									OFFSET 0.000000 11.579437 0.000000
								}
							}
						}
						JOINT HairB
						{
							OFFSET -10.777400 17.437393 1.467900
							CHANNELS 3 Xrotation Yrotation Zrotation
							JOINT HairB1
							{
								OFFSET -1.561200 -12.956299 3.590200
								CHANNELS 3 Xrotation Yrotation Zrotation
								End Site
								{
									OFFSET 0.000000 13.534866 0.000000
								}
							}
						}
						JOINT HairA
						{
							OFFSET 9.713100 17.437393 1.467900
							CHANNELS 3 Xrotation Yrotation Zrotation
							JOINT HairA1
							{
								OFFSET 1.561200 -12.956299 3.590200
								CHANNELS 3 Xrotation Yrotation Zrotation
								End Site
								{
									OFFSET 0.000000 13.534866 0.000000
								}
							}
						}
						JOINT HairC
						{
							OFFSET 9.713100 17.437393 -1.325900
							CHANNELS 3 Xrotation Yrotation Zrotation
							JOINT HairC1
							{
								OFFSET 3.290300 -11.051193 1.062200
								CHANNELS 3 Xrotation Yrotation Zrotation
								End Site
								{
									OFFSET 0.000000 11.579437 0.000000
								}
							}
						}
					}
				}
				JOINT LeftShoulder
				{
					OFFSET 5.101800 15.108002 -2.763700
					CHANNELS 3 Xrotation Yrotation Zrotation
					JOINT LeftArm
					{
						OFFSET 9.825497 2.506317 -1.597400
						CHANNELS 3 Xrotation Yrotation Zrotation
						JOINT LeftForeArm
						{
							OFFSET 21.966244 0.000000 0.000000
							CHANNELS 3 Xrotation Yrotation Zrotation
							JOINT LeftHand
							{
								OFFSET 33.879036 0.000000 0.000000
								CHANNELS 3 Xrotation Yrotation Zrotation
								JOINT LeftHandThumb1
								{
									OFFSET 6.715286 -2.359680 3.363841
									CHANNELS 3 Xrotation Yrotation Zrotation
									JOINT LeftHandThumb2
									{
										OFFSET 2.507072 -1.447464 1.447461
										CHANNELS 3 Xrotation Yrotation Zrotation
										JOINT LeftHandThumb3
										{
											OFFSET 2.898338 -1.673355 1.673357
											CHANNELS 3 Xrotation Yrotation Zrotation
											End Site
											{
												OFFSET -0.295959 3.727692 -0.131651
											}
										}
									}
								}
								JOINT LeftHandIndex1
								{
									OFFSET 14.190811 -0.254547 3.840278
									CHANNELS 3 Xrotation Yrotation Zrotation
									JOINT LeftHandIndex2
									{
										OFFSET 3.551727 0.000000 -0.000000
										CHANNELS 3 Xrotation Yrotation Zrotation
										JOINT LeftHandIndex3
										{
											OFFSET 2.894196 0.000000 0.000000
											CHANNELS 3 Xrotation Yrotation Zrotation
											End Site
											{
												OFFSET -1.000603 2.690872 0.366626
											}
										}
									}
								}
								JOINT LeftHandMiddle1
								{
									OFFSET 13.776489 0.000000 0.000000
									CHANNELS 3 Xrotation Yrotation Zrotation
									JOINT LeftHandMiddle2
									{
										OFFSET 3.438232 0.000000 0.000000
										CHANNELS 3 Xrotation Yrotation Zrotation
										JOINT LeftHandMiddle3
										{
											OFFSET 3.691551 0.000000 0.000000
											CHANNELS 3 Xrotation Yrotation Zrotation
											End Site
											{
												OFFSET -1.082298 3.499527 0.457670
											}
										}
									}
								}
								JOINT LeftHandRing1
								{
									OFFSET 13.966164 -0.268127 -3.067488
									CHANNELS 3 Xrotation Yrotation Zrotation
									JOINT LeftHandRing2
									{
										OFFSET 3.162567 0.000000 0.000000
										CHANNELS 3 Xrotation Yrotation Zrotation
										JOINT LeftHandRing3
										{
											OFFSET 3.324348 0.000000 0.000000
											CHANNELS 3 Xrotation Yrotation Zrotation
											End Site
											{
												OFFSET -0.861900 3.184998 0.405154
											}
										}
									}
								}
								JOINT LeftHandPinky1
								{
									OFFSET 13.131393 -0.168503 -5.746925
									CHANNELS 3 Xrotation Yrotation Zrotation
									JOINT LeftHandPinky2
									{
										OFFSET 2.849182 0.000000 0.000000
										CHANNELS 3 Xrotation Yrotation Zrotation
										JOINT LeftHandPinky3
										{
											OFFSET 2.805038 0.000000 0.000000
											CHANNELS 3 Xrotation Yrotation Zrotation
											End Site
											{
												OFFSET -0.882500 2.642609 0.325652
											}
										}
									}
								}
							}
							JOINT Left_Sleeve
							{
								OFFSET 6.592125 -0.646545 0.805568
								CHANNELS 3 Xrotation Yrotation Zrotation
								End Site
								{
									OFFSET -0.000179 20.275787 -0.000000
								}
							}
						}
					}
				}
				JOINT RightShoulder
				{
					OFFSET -5.731700 15.108002 -2.763700
					CHANNELS 3 Xrotation Yrotation Zrotation
					JOINT RightArm
					{
						OFFSET -9.825497 2.506317 -1.597400
						CHANNELS 3 Xrotation Yrotation Zrotation
						JOINT RightForeArm
						{
							OFFSET -21.966242 0.000000 0.000000
							CHANNELS 3 Xrotation Yrotation Zrotation
							JOINT RightHand
							{
								OFFSET -33.879032 0.000000 0.000000
								CHANNELS 3 Xrotation Yrotation Zrotation
								JOINT RightHandThumb1
								{
									OFFSET -6.715286 -2.359680 3.363841
									CHANNELS 3 Xrotation Yrotation Zrotation
									JOINT RightHandThumb2
									{
										OFFSET -2.507072 -1.447464 1.447461
										CHANNELS 3 Xrotation Yrotation Zrotation
										JOINT RightHandThumb3
										{
											OFFSET -2.898338 -1.673355 1.673357
											CHANNELS 3 Xrotation Yrotation Zrotation
											End Site
											{
												OFFSET 0.295959 3.727692 -0.131651
											}
										}
									}
								}
								JOINT RightHandIndex1
								{
									OFFSET -14.190811 -0.254547 3.840278
									CHANNELS 3 Xrotation Yrotation Zrotation
									JOINT RightHandIndex2
									{
										OFFSET -3.551727 0.000000 -0.000000
										CHANNELS 3 Xrotation Yrotation Zrotation
										JOINT RightHandIndex3
										{
											OFFSET -2.894196 0.000000 0.000000
											CHANNELS 3 Xrotation Yrotation Zrotation
											End Site
											{
												OFFSET 1.000603 2.690872 0.366626
											}
										}
									}
								}
								JOINT RightHandMiddle1
								{
									OFFSET -13.776489 0.000000 0.000000
									CHANNELS 3 Xrotation Yrotation Zrotation
									JOINT RightHandMiddle2
									{
										OFFSET -3.438232 0.000000 0.000000
										CHANNELS 3 Xrotation Yrotation Zrotation
										JOINT RightHandMiddle3
										{
											OFFSET -3.691551 0.000000 0.000000
											CHANNELS 3 Xrotation Yrotation Zrotation
											End Site
											{
												OFFSET 1.082298 3.499527 0.457670
											}
										}
									}
								}
								JOINT RightHandRing1
								{
									OFFSET -13.966164 -0.268127 -3.067488
									CHANNELS 3 Xrotation Yrotation Zrotation
									JOINT RightHandRing2
									{
										OFFSET -3.162567 0.000000 0.000000
										CHANNELS 3 Xrotation Yrotation Zrotation
										JOINT RightHandRing3
										{
											OFFSET -3.324348 0.000000 0.000000
											CHANNELS 3 Xrotation Yrotation Zrotation
											End Site
											{
												OFFSET 0.861900 3.184998 0.405154
											}
										}
									}
								}
								JOINT RightHandPinky1
								{
									OFFSET -13.131393 -0.168503 -5.746925
									CHANNELS 3 Xrotation Yrotation Zrotation
									JOINT RightHandPinky2
									{
										OFFSET -2.849182 0.000000 0.000000
										CHANNELS 3 Xrotation Yrotation Zrotation
										JOINT RightHandPinky3
										{
											OFFSET -2.805038 0.000000 0.000000
											CHANNELS 3 Xrotation Yrotation Zrotation
											End Site
											{
												OFFSET 0.882500 2.642609 0.325652
											}
										}
									}
								}
							}
							JOINT Right_Sleeve
							{
								OFFSET -6.592125 -0.646545 0.805568
								CHANNELS 3 Xrotation Yrotation Zrotation
								End Site
								{
									OFFSET 0.000179 20.275787 -0.000000
								}
							}
						}
					}
				}
				JOINT Bind_Right_JacketString
				{
					OFFSET -3.534800 11.969597 7.200700
					CHANNELS 3 Xrotation Yrotation Zrotation
					JOINT Bind_Right_JacketString1
					{
						OFFSET -0.319900 -6.102600 2.794100
						CHANNELS 3 Xrotation Yrotation Zrotation
						End Site
						{
							OFFSET 0.000000 6.719452 0.000000
						}
					}
				}
				JOINT Bind_Left_JacketString
				{
					OFFSET 2.904800 11.969597 7.200700
					CHANNELS 3 Xrotation Yrotation Zrotation
					JOINT Bind_Left_JacketString1
					{
						OFFSET 0.364800 -5.904503 3.186800
						CHANNELS 3 Xrotation Yrotation Zrotation
						End Site
						{
							OFFSET 0.000000 6.719513 0.000000
						}
					}
				}
				JOINT HairE
				{
					OFFSET 5.915200 17.612701 -11.592200
					CHANNELS 3 Xrotation Yrotation Zrotation
					JOINT HairE1
					{
						OFFSET 0.289200 -7.171898 -1.284500
						CHANNELS 3 Xrotation Yrotation Zrotation
						End Site
						{
							OFFSET 0.000000 7.291756 0.000000
						}
					}
				}
				JOINT HairF
				{
					OFFSET -0.864800 17.612701 -11.592200
					CHANNELS 3 Xrotation Yrotation Zrotation
					JOINT HairF1
					{
						OFFSET 0.000000 -14.087097 -2.127501
						CHANNELS 3 Xrotation Yrotation Zrotation
						End Site
						{
							OFFSET 0.000000 14.246841 0.000000
						}
					}
				}
				JOINT HairG
				{
					OFFSET -8.087700 17.612701 -11.592200
					CHANNELS 3 Xrotation Yrotation Zrotation
					JOINT HairG1
					{
						OFFSET -0.293600 -6.081398 -0.910100
						CHANNELS 3 Xrotation Yrotation Zrotation
						End Site
						{
							OFFSET 0.000000 6.156120 0.000000
						}
					}
				}
			}
		}
	}
	JOINT Pouch
	{
		OFFSET 0.000000 4.394501 10.847300
		CHANNELS 3 Xrotation Yrotation Zrotation
		End Site
		{
			OFFSET 0.000000 21.880577 0.000000
		}
	}
	JOINT Bag
	{
		OFFSET -13.229000 4.813004 -0.593300
		CHANNELS 3 Xrotation Yrotation Zrotation
		End Site
		{
			OFFSET 0.000000 21.880577 0.000000
		}
	}
	JOINT OccupyGuyFacialAnim_Joint
	{
		OFFSET 1.000000 -70.206398 -1.655000
		CHANNELS 3 Xrotation Yrotation Zrotation
		End Site
		{
			OFFSET 0.000000 21.880577 0.000000
		}
	}
}
MOTION
Frames: 4
Frame Time: 0.016667
1.074964 67.131439 -1.911952 2.061961 -10.321731 -1.981303 0.000000 0.000001 0.000000 -33.049267 2.873846 7.506804 32.636109 0.554120 2.863551 -1.739757 0.331521 -4.445220 0.000000 -0.000000 0.000000 -0.000004 0.000001 -0.000000 -14.341046 -11.417595 -11.560420 36.544312 -10.307978 2.903560 -20.446784 -2.664064 11.502781 -0.000000 0.000001 0.000000 0.000001 0.000000 -0.000001 21.552969 5.745922 1.581334 2.971771 1.798108 -0.052723 2.970858 1.873018 -0.065766 -3.972172 15.157914 2.233331 6.503282 46.829061 -20.357748 -0.000000 0.000001 -0.000000 -0.000000 0.000001 -0.000000 -0.000000 0.000001 -0.000000 -0.000000 0.000001 -0.000000 -0.000000 0.000001 0.000001 -0.000000 0.000001 -0.000000 -0.000000 0.000001 0.000001 -0.000000 0.000001 -0.000000 -0.000000 0.000001 -0.000000 1.350334 -32.914022 3.985059 -22.769921 -14.531422 -67.625949 0.000021 -44.195695 -9.360744 -35.824393 -9.101363 -6.762466 -7.471919 1.860680 -7.166913 30.987011 27.310520 -4.510896 -0.000002 0.000001 -0.000001 -4.686307 11.374171 -75.574192 -0.816400 3.073990 -46.874625 -0.000001 -0.000003 0.000005 1.616618 16.582678 -84.688786 0.018015 0.022031 -72.884853 -0.000001 0.000000 0.000001 -7.765811 20.752770 -77.737791 0.013355 0.983467 -51.003601 -0.000001 -0.000000 -0.000002 -13.924174 3.850356 -44.469818 0.013466 0.024871 -63.895149 0.000002 -0.000004 -0.000001 0.000002 0.000001 -0.000000 9.555402 22.112633 -11.863558 -43.977829 10.617604 77.772987 0.000009 50.389048 2.241437 -28.429776 16.642772 6.785466 9.347157 2.810536 -11.364518 16.169086 -43.266004 15.843587 -0.000000 -0.000000 0.000003 17.076789 -0.396551 31.924335 -0.204436 -0.284187 112.811564 -0.000001 0.000001 -0.000001 9.205482 -5.035906 102.738100 0.014961 -0.019202 61.018492 0.000001 0.000003 -0.000000 5.569125 -8.935185 107.329087 0.547980 -0.005796 41.263703 0.000001 -0.000002 -0.000000 6.511247 -17.148266 98.228010 0.007414 -0.015760 43.845740 -0.000002 0.000003 -0.000001 0.000002 0.000001 -0.000001 -0.000001 -0.000000 -0.000000 -0.000001 -0.000000 0.000000 -0.000001 -0.000000 0.000000 -0.000001 -0.000000 0.000000 -0.000001 -0.000000 -0.000000 -0.000001 -0.000000 0.000000 -0.000001 -0.000000 0.000000 -0.000001 -0.000000 0.000000 -0.000001 -0.000000 -0.000000 -0.000001 -0.000000 0.000000 0.000000 0.000001 0.000000 0.000000 0.000001 0.000000 0.000000 0.000001 0.000000 
1.150454 67.147179 -1.694277 2.140602 -9.930402 -1.965311 -0.000000 -0.000000 -0.000000 -33.076687 2.850795 7.257415 32.830691 0.325832 2.906497 -2.001333 0.332825 -4.300898 -0.000000 -0.000000 -0.000000 -0.000005 -0.000000 0.000000 -13.950646 -11.478625 -11.611895 36.195440 -10.628994 2.921465 -20.425790 -2.737770 11.756250 0.000000 -0.000001 -0.000000 0.000000 0.000000 -0.000001 21.508414 5.737066 1.332252 2.951612 1.865108 -0.160994 2.950951 1.939448 -0.175155 -4.099828 15.090193 2.372693 6.098610 46.772900 -19.938085 -0.000000 0.000003 -0.000001 -0.000000 0.000003 -0.000001 -0.000000 0.000003 -0.000001 -0.000000 0.000003 -0.000000 -0.000000 0.000003 -0.000000 -0.000000 0.000003 -0.000000 -0.000000 0.000003 -0.000000 -0.000000 0.000003 -0.000001 -0.000000 0.000003 -0.000001 1.306163 -33.191291 4.056580 -22.439082 -14.543426 -67.584797 0.000026 -44.463702 -8.793766 -35.436667 -8.587727 -7.126268 -7.471915 1.860683 -7.166911 30.987004 27.310522 -4.510901 0.000003 -0.000002 -0.000002 -4.686368 11.374059 -75.571153 -0.816404 3.073988 -46.874625 0.000001 0.000000 -0.000002 1.616631 16.582673 -84.688793 0.018011 0.022035 -72.884860 -0.000001 0.000001 0.000001 -7.759313 20.770667 -77.712718 0.013344 0.983467 -51.003615 -0.000000 0.000002 -0.000005 -14.013700 3.966978 -44.412605 0.013505 0.024905 -64.018940 0.000001 -0.000003 -0.000001 -0.000003 -0.000000 -0.000002 9.474266 21.562342 -11.639585 -44.239067 10.875440 78.236805 0.000065 50.076406 2.034994 -28.523155 16.871192 6.756801 9.347158 2.810534 -11.364517 16.169090 -43.266007 15.843578 0.000000 0.000000 0.000004 17.076791 -0.396551 31.924335 -0.204437 -0.284186 112.811550 -0.000001 -0.000002 -0.000000 9.205483 -5.035903 102.738100 0.014961 -0.019202 61.018492 0.000000 0.000001 -0.000001 5.569124 -8.935183 107.329087 0.547979 -0.005792 41.263703 0.000001 0.000001 -0.000001 6.511247 -17.148266 98.228004 0.007410 -0.015759 43.845740 -0.000001 0.000003 0.000001 0.000001 0.000002 0.000001 0.000001 -0.000000 -0.000000 0.000001 -0.000000 -0.000000 0.000001 -0.000000 -0.000000 0.000001 -0.000000 -0.000000 0.000001 -0.000000 -0.000000 0.000001 -0.000000 -0.000000 0.000001 -0.000000 -0.000000 0.000001 -0.000000 -0.000000 0.000001 -0.000000 -0.000000 0.000001 -0.000000 -0.000000 -0.000000 -0.000000 -0.000000 -0.000000 -0.000000 -0.000000 -0.000000 -0.000000 -0.000000 
1.221223 67.159386 -1.477877 2.219788 -9.563738 -1.933807 0.000000 -0.000001 0.000000 -33.100616 2.813948 7.013223 33.033032 0.132092 2.927102 -2.268392 0.333499 -4.160421 -0.000000 0.000000 -0.000000 0.000000 -0.000000 -0.000000 -13.589770 -11.565555 -11.672620 35.867605 -10.905146 2.908711 -20.416110 -2.811146 12.004571 -0.000000 0.000001 -0.000000 -0.000000 -0.000002 -0.000000 21.459768 5.708939 1.076606 2.933344 1.930219 -0.273806 2.932958 2.004093 -0.288580 -4.241909 15.007611 2.532611 5.637720 46.665983 -19.447733 -0.000000 -0.000001 -0.000001 -0.000000 -0.000001 -0.000001 -0.000000 -0.000001 -0.000001 -0.000000 -0.000001 -0.000001 -0.000000 0.000001 -0.000000 -0.000000 -0.000001 -0.000001 -0.000000 0.000001 -0.000000 -0.000000 -0.000001 -0.000001 -0.000000 -0.000001 -0.000001 1.253899 -33.456828 4.134836 -22.076225 -14.578441 -67.548160 0.000025 -44.717033 -8.228636 -35.111547 -8.142446 -7.495862 -7.471918 1.860675 -7.166915 30.987004 27.310522 -4.510894 -0.000002 0.000001 -0.000002 -4.686463 11.373949 -75.568100 -0.816405 3.073987 -46.874625 0.000002 -0.000004 0.000001 1.616612 16.582670 -84.688806 0.018013 0.022041 -72.884853 0.000001 -0.000003 0.000000 -7.752852 20.788932 -77.688156 0.013354 0.983451 -51.003604 -0.000001 0.000000 -0.000002 -14.104046 4.086273 -44.357629 0.013560 0.024917 -64.143543 -0.000001 -0.000002 -0.000001 0.000002 -0.000001 -0.000001 9.408126 21.067913 -11.442659 -44.479858 11.089961 78.693376 -0.000009 49.791003 1.848540 -28.571600 17.092982 6.703806 9.347157 2.810538 -11.364522 16.169083 -43.266004 15.843587 -0.000000 -0.000001 0.000002 17.076793 -0.396550 31.924328 -0.204439 -0.284189 112.811557 -0.000000 -0.000000 0.000000 9.205484 -5.035904 102.738094 0.014962 -0.019202 61.018492 -0.000000 -0.000000 -0.000001 5.569123 -8.935181 107.329080 0.547983 -0.005794 41.263703 -0.000000 -0.000000 -0.000002 6.511248 -17.148266 98.228004 0.007409 -0.015758 43.845737 -0.000003 0.000002 -0.000001 0.000001 0.000000 0.000001 0.000001 0.000000 -0.000000 -0.000000 0.000000 -0.000000 0.000001 0.000000 0.000000 0.000001 0.000000 0.000000 0.000001 0.000000 -0.000000 -0.000000 0.000000 -0.000000 0.000001 0.000000 0.000000 0.000001 0.000000 0.000000 0.000001 0.000000 -0.000000 -0.000000 0.000000 -0.000000 0.000000 -0.000001 0.000000 0.000000 -0.000001 0.000000 0.000000 -0.000001 0.000000 
1.287546 67.167679 -1.263561 2.299526 -9.220201 -1.890186 0.000000 -0.000000 0.000000 -33.131557 2.820165 6.773250 33.245785 -0.075684 2.963260 -2.541056 0.333093 -4.025846 -0.000000 0.000000 0.000000 0.000004 -0.000001 0.000000 -13.240834 -11.591138 -11.737455 35.573343 -11.209595 2.919492 -20.418268 -2.884626 12.249005 -0.000000 -0.000000 0.000000 0.000002 -0.000001 -0.000002 21.407054 5.676100 0.820443 2.917130 1.985256 -0.390849 2.916586 2.058882 -0.406592 -4.390912 14.896789 2.706928 5.129833 46.545000 -18.898495 -0.000001 -0.000001 0.000001 -0.000001 -0.000001 0.000001 -0.000001 -0.000001 0.000001 -0.000001 -0.000001 0.000001 -0.000001 -0.000001 0.000001 -0.000001 -0.000001 0.000001 -0.000001 -0.000001 0.000001 -0.000001 -0.000001 0.000001 -0.000001 -0.000001 0.000001 1.216780 -33.714480 4.232023 -21.704820 -14.643562 -67.511434 0.000007 -44.942512 -7.663731 -34.862891 -7.769642 -7.870575 -7.471915 1.860686 -7.166910 30.987004 27.310517 -4.510901 -0.000003 -0.000001 -0.000003 -4.686535 11.373837 -75.565012 -0.816401 3.073986 -46.874629 0.000000 -0.000001 -0.000002 1.616623 16.582671 -84.688827 0.018014 0.022032 -72.884867 -0.000001 0.000002 0.000003 -7.746351 20.807517 -77.664073 0.013343 0.983454 -51.003604 0.000001 0.000001 -0.000001 -14.195104 4.208195 -44.304814 0.013616 0.024956 -64.268918 0.000002 -0.000002 -0.000001 -0.000001 0.000002 -0.000003 9.352116 20.644021 -11.270547 -44.692154 11.251925 79.128513 0.000046 49.534209 1.683160 -28.576057 17.304001 6.626684 9.347159 2.810538 -11.364522 16.169086 -43.266007 15.843583 0.000001 0.000003 0.000001 17.076793 -0.396551 31.924335 -0.204438 -0.284187 112.811557 -0.000001 0.000001 0.000002 9.205484 -5.035906 102.738100 0.014961 -0.019203 61.018492 0.000001 0.000001 -0.000002 5.569125 -8.935185 107.329087 0.547979 -0.005794 41.263697 0.000001 0.000001 -0.000001 6.511246 -17.148267 98.228004 0.007410 -0.015761 43.845740 -0.000001 -0.000004 -0.000000 -0.000002 0.000002 -0.000000 0.000001 0.000000 -0.000000 0.000001 -0.000000 -0.000000 0.000001 0.000000 0.000000 0.000001 0.000000 0.000000 0.000001 0.000000 -0.000000 0.000001 -0.000000 -0.000000 0.000001 0.000000 0.000000 0.000001 0.000000 0.000000 0.000001 0.000000 -0.000000 0.000001 -0.000000 -0.000000 0.000000 -0.000000 0.000000 0.000000 -0.000000 0.000000 0.000000 -0.000000 0.000000 
